<svg width="143" height="27" viewBox="0 0 143 27" fill="none" xmlns="http://www.w3.org/2000/svg">
<path d="M5.11609 14.2091C4.70597 14.5847 4.18152 14.7725 3.54273 14.7725C2.75232 14.7725 2.13093 14.5188 1.67856 14.0113C1.22619 13.5013 1 12.8023 1 11.9142C1 10.9539 1.25726 10.2139 1.77177 9.69394C2.21917 9.24118 2.78836 9.0148 3.47935 9.0148C4.40397 9.0148 5.08004 9.31829 5.50756 9.92529C5.74369 10.2661 5.87045 10.6082 5.88785 10.9515H4.73952C4.66496 10.6878 4.56926 10.4888 4.45244 10.3544C4.24365 10.1156 3.9342 9.99619 3.52408 9.99619C3.10651 9.99619 2.77717 10.1654 2.53608 10.5037C2.29498 10.8395 2.17443 11.3159 2.17443 11.9329C2.17443 12.5498 2.30119 13.0125 2.55472 13.321C2.81073 13.627 3.1351 13.78 3.52781 13.78C3.93047 13.78 4.23744 13.6481 4.44871 13.3844C4.56553 13.2426 4.66247 13.0299 4.73952 12.7463H5.87667C5.77724 13.3459 5.52372 13.8334 5.11609 14.2091Z" fill="black"/>
<path d="M8.86142 12.4627H7.67581V14.6195H6.55358V9.11928H9.24917C9.63443 9.12674 9.93021 9.17401 10.1365 9.26108C10.3453 9.34815 10.5218 9.47626 10.6659 9.64543C10.7852 9.78474 10.8797 9.93897 10.9493 10.1081C11.0189 10.2773 11.0537 10.4701 11.0537 10.6865C11.0537 10.9477 10.9878 11.2052 10.8561 11.4589C10.7244 11.7102 10.5069 11.8881 10.2036 11.9926C10.4572 12.0945 10.6361 12.2401 10.7405 12.4291C10.8474 12.6157 10.9008 12.9018 10.9008 13.2874V13.6568C10.9008 13.9081 10.9108 14.0785 10.9307 14.168C10.9605 14.3098 11.0301 14.4143 11.1394 14.4815V14.6195H9.87553C9.84074 14.4977 9.81588 14.3994 9.80097 14.3248C9.77114 14.1705 9.75498 14.0126 9.7525 13.8509L9.74504 13.3396C9.74007 12.9889 9.67544 12.755 9.55117 12.6381C9.42937 12.5212 9.19946 12.4627 8.86142 12.4627ZM9.55862 11.4627C9.7873 11.3582 9.90163 11.1517 9.90163 10.8432C9.90163 10.5099 9.79102 10.286 9.56981 10.1716C9.44553 10.1069 9.25911 10.0746 9.01056 10.0746H7.67581V11.5522H8.977C9.2355 11.5522 9.42937 11.5224 9.55862 11.4627Z" fill="black"/>
<path d="M15.6416 12.2164H12.9721V13.6307H16.0145V14.6195H11.8499V9.11928H15.8802V10.0932H12.9721V11.2612H15.6416V12.2164Z" fill="black"/>
<path d="M19.8978 13.4889H17.8733L17.493 14.6195H16.2924L18.2536 9.11928H19.551L21.4972 14.6195H20.2519L19.8978 13.4889ZM19.5771 12.5411L18.8911 10.3768L18.1827 12.5411H19.5771Z" fill="black"/>
<path d="M25.3954 9.11928V10.0932H23.7512V14.6195H22.5954V10.0932H20.9438V9.11928H25.3954Z" fill="black"/>
<path d="M25.7517 9.11928H26.8926V14.6195H25.7517V9.11928Z" fill="black"/>
<path d="M32.1814 14.6195H31.0331L28.7886 10.7126V14.6195H27.7186V9.11928H28.9229L31.1114 12.959V9.11928H32.1814V14.6195Z" fill="black"/>
<path d="M36.3965 14.4852C36.0933 14.6718 35.7205 14.7651 35.278 14.7651C34.5498 14.7651 33.9532 14.5126 33.4884 14.0076C33.0038 13.5001 32.7614 12.806 32.7614 11.9254C32.7614 11.0348 33.0062 10.3208 33.4959 9.78349C33.9856 9.24615 34.633 8.97748 35.4384 8.97748C36.1368 8.97748 36.6973 9.15535 37.1198 9.51109C37.5449 9.86434 37.7885 10.3059 37.8506 10.8358H36.7209C36.6339 10.4601 36.4214 10.1977 36.0834 10.0484C35.8945 9.96634 35.6844 9.92529 35.4533 9.92529C35.0108 9.92529 34.6467 10.0932 34.3609 10.429C34.0775 10.7624 33.9358 11.2649 33.9358 11.9366C33.9358 12.6132 34.0899 13.0921 34.3982 13.3732C34.7064 13.6543 35.0568 13.7949 35.4495 13.7949C35.8348 13.7949 36.1505 13.6842 36.3965 13.4628C36.6426 13.2389 36.7942 12.9466 36.8514 12.5859H35.58V11.6679H37.8692V14.6195H37.1087L36.9931 13.9329C36.7719 14.1942 36.573 14.3782 36.3965 14.4852Z" fill="black"/>
<path d="M27.2781 16.2069H24.5229V17.4719H26.9351V18.4272H24.5229V20.7332H23.382V15.2404H27.2781V16.2069Z" fill="black"/>
<path d="M30.1753 20.8862C29.3899 20.8862 28.7896 20.6723 28.3745 20.2444C27.8178 19.7195 27.5394 18.9633 27.5394 17.9756C27.5394 16.9681 27.8178 16.2119 28.3745 15.7069C28.7896 15.279 29.3899 15.0651 30.1753 15.0651C30.9608 15.0651 31.561 15.279 31.9761 15.7069C32.5304 16.2119 32.8075 16.9681 32.8075 17.9756C32.8075 18.9633 32.5304 19.7195 31.9761 20.2444C31.561 20.6723 30.9608 20.8862 30.1753 20.8862ZM31.2603 19.4085C31.5262 19.0727 31.6592 18.5951 31.6592 17.9756C31.6592 17.3587 31.525 16.8823 31.2566 16.5465C30.9906 16.2081 30.6302 16.039 30.1753 16.039C29.7205 16.039 29.3576 16.2069 29.0867 16.5427C28.8157 16.8786 28.6803 17.3562 28.6803 17.9756C28.6803 18.5951 28.8157 19.0727 29.0867 19.4085C29.3576 19.7444 29.7205 19.9123 30.1753 19.9123C30.6302 19.9123 30.9918 19.7444 31.2603 19.4085Z" fill="black"/>
<path d="M35.7159 18.5764H34.5303V20.7332H33.4081V15.233H36.1037C36.489 15.2404 36.7847 15.2877 36.991 15.3748C37.1998 15.4618 37.3763 15.59 37.5205 15.7591C37.6398 15.8984 37.7342 16.0527 37.8038 16.2218C37.8734 16.391 37.9082 16.5838 37.9082 16.8002C37.9082 17.0614 37.8423 17.3189 37.7106 17.5726C37.5789 17.8239 37.3614 18.0018 37.0581 18.1062C37.3117 18.2082 37.4906 18.3538 37.595 18.5428C37.7019 18.7294 37.7553 19.0155 37.7553 19.4011V19.7705C37.7553 20.0218 37.7653 20.1922 37.7852 20.2817C37.815 20.4235 37.8846 20.528 37.994 20.5952V20.7332H36.7301C36.6953 20.6113 36.6704 20.5131 36.6555 20.4384C36.6257 20.2842 36.6095 20.1262 36.607 19.9645L36.5996 19.4533C36.5946 19.1026 36.53 18.8687 36.4057 18.7518C36.2839 18.6349 36.054 18.5764 35.7159 18.5764ZM36.4131 17.5764C36.6418 17.4719 36.7562 17.2654 36.7562 16.9569C36.7562 16.6236 36.6455 16.3997 36.4243 16.2853C36.3001 16.2206 36.1136 16.1882 35.8651 16.1882H34.5303V17.6659H35.8315C36.09 17.6659 36.2839 17.6361 36.4131 17.5764Z" fill="black"/>
<path d="M5.06389 24.4439H2.3944V25.8582H5.43672V26.847H1.27217V21.3467H5.3025V22.3207H2.3944V23.4886H5.06389V24.4439Z" fill="black"/>
<path d="M6.92478 26.847H5.85474V21.3467H7.52504L8.52423 25.6716L9.51597 21.3467H11.1676V26.847H10.0976V23.1267C10.0976 23.0197 10.0988 22.8704 10.1013 22.6789C10.1038 22.4849 10.105 22.3356 10.105 22.2311L9.06484 26.847H7.95007L6.91732 22.2311C6.91732 22.3356 6.91856 22.4849 6.92105 22.6789C6.92353 22.8704 6.92478 23.0197 6.92478 23.1267V26.847Z" fill="black"/>
<path d="M14.2067 27C13.4212 27 12.821 26.7861 12.4059 26.3582C11.8491 25.8333 11.5707 25.077 11.5707 24.0894C11.5707 23.0819 11.8491 22.3256 12.4059 21.8206C12.821 21.3928 13.4212 21.1788 14.2067 21.1788C14.9921 21.1788 15.5924 21.3928 16.0075 21.8206C16.5617 22.3256 16.8389 23.0819 16.8389 24.0894C16.8389 25.077 16.5617 25.8333 16.0075 26.3582C15.5924 26.7861 14.9921 27 14.2067 27ZM15.2916 25.5223C15.5576 25.1865 15.6905 24.7088 15.6905 24.0894C15.6905 23.4725 15.5563 22.9961 15.2879 22.6602C15.0219 22.3219 14.6615 22.1527 14.2067 22.1527C13.7518 22.1527 13.3889 22.3207 13.118 22.6565C12.8471 22.9923 12.7116 23.47 12.7116 24.0894C12.7116 24.7088 12.8471 25.1865 13.118 25.5223C13.3889 25.8582 13.7518 26.0261 14.2067 26.0261C14.6615 26.0261 15.0232 25.8582 15.2916 25.5223Z" fill="black"/>
<path d="M21.2537 21.3467V22.3207H19.6095V26.847H18.4537V22.3207H16.802V21.3467H21.2537Z" fill="black"/>
<path d="M21.3809 21.3467H22.5218V26.847H21.3809V21.3467Z" fill="black"/>
<path d="M25.5683 27C24.7828 27 24.1826 26.7861 23.7675 26.3582C23.2107 25.8333 22.9323 25.077 22.9323 24.0894C22.9323 23.0819 23.2107 22.3256 23.7675 21.8206C24.1826 21.3928 24.7828 21.1788 25.5683 21.1788C26.3537 21.1788 26.954 21.3928 27.369 21.8206C27.9233 22.3256 28.2005 23.0819 28.2005 24.0894C28.2005 25.077 27.9233 25.8333 27.369 26.3582C26.954 26.7861 26.3537 27 25.5683 27ZM26.6532 25.5223C26.9192 25.1865 27.0521 24.7088 27.0521 24.0894C27.0521 23.4725 26.9179 22.9961 26.6495 22.6602C26.3835 22.3219 26.0231 22.1527 25.5683 22.1527C25.1134 22.1527 24.7505 22.3207 24.4796 22.6565C24.2087 22.9923 24.0732 23.47 24.0732 24.0894C24.0732 24.7088 24.2087 25.1865 24.4796 25.5223C24.7505 25.8582 25.1134 26.0261 25.5683 26.0261C26.0231 26.0261 26.3848 25.8582 26.6532 25.5223Z" fill="black"/>
<path d="M33.0664 26.847H31.9181L29.6736 22.9401V26.847H28.6036V21.3467H29.8078L31.9964 25.1865V21.3467H33.0664V26.847Z" fill="black"/>
<path d="M35.6767 26.0522C35.9476 26.0522 36.1676 26.0223 36.3366 25.9626C36.6572 25.8482 36.8175 25.6355 36.8175 25.3245C36.8175 25.1429 36.738 25.0024 36.5789 24.9029C36.4199 24.8059 36.1701 24.72 35.8295 24.6454L35.2479 24.5148C34.6762 24.3854 34.281 24.2449 34.0623 24.0931C33.692 23.8394 33.5068 23.4426 33.5068 22.9028C33.5068 22.4102 33.6857 22.001 34.0437 21.6751C34.4016 21.3492 34.9273 21.1863 35.6208 21.1863C36.1999 21.1863 36.6933 21.3405 37.1009 21.649C37.511 21.955 37.726 22.4003 37.7459 22.9849H36.6423C36.6224 22.654 36.4783 22.4189 36.2098 22.2796C36.0309 22.1876 35.8084 22.1416 35.5425 22.1416C35.2467 22.1416 35.0105 22.2013 34.8341 22.3207C34.6576 22.4401 34.5694 22.6067 34.5694 22.8207C34.5694 23.0172 34.6564 23.164 34.8303 23.261C34.9422 23.3257 35.1808 23.4016 35.5462 23.4886L36.4932 23.7163C36.9083 23.8158 37.2215 23.9489 37.4327 24.1155C37.7608 24.3743 37.9249 24.7486 37.9249 25.2387C37.9249 25.7412 37.7322 26.1592 37.347 26.4925C36.9642 26.8234 36.4223 26.9888 35.7214 26.9888C35.0056 26.9888 34.4426 26.8259 34.0325 26.5C33.6224 26.1716 33.4173 25.7213 33.4173 25.1492H34.5134C34.5482 25.4004 34.6166 25.5882 34.7185 25.7126C34.9049 25.939 35.2243 26.0522 35.6767 26.0522Z" fill="black"/>
<path d="M32.7267 3H38.1989V8.47688H32.7267V3Z" fill="black"/>
<path d="M68.1037 14.6058L68.1037 14.5216L68.0195 14.5216L58.56 14.5216L58.56 5.0636L58.56 4.97939L58.4757 4.97939L57.6902 4.97939L57.606 4.97939L57.606 5.0636L57.606 14.5216L48.1465 14.5216L48.0623 14.5216L48.0623 14.6058L48.0623 15.3944L48.0623 15.4786L48.1465 15.4786L57.606 15.4786L57.606 24.9367L57.606 25.0209L57.6902 25.0209L58.4757 25.0209L58.56 25.0209L58.56 24.9367L58.56 15.4786L68.0195 15.4786L68.1037 15.4786L68.1037 15.3944L68.1037 14.6058Z" fill="black" stroke="black" stroke-width="0.168416"/>
<path d="M135.455 0.359253H130.503V1.32426H132.441V5.82155H133.518V1.32426H135.455V0.359253Z" fill="black"/>
<path d="M142.599 0.359253H140.967L139.442 4.60164L137.899 0.359253H136.248V5.82155H137.289V1.50634L138.85 5.82155H139.998L141.559 1.50634V5.82155H142.599V0.359253Z" fill="black"/>
<path fill-rule="evenodd" clip-rule="evenodd" d="M102.029 23.534V17.4849H87.5831V23.534H77.9648V5.82155H87.5831V11.8707H102.029V5.82155L125.466 5.82234C130.915 5.75645 134.961 9.84154 134.917 14.6778C134.961 19.4876 130.915 23.5991 125.466 23.5332L102.029 23.534ZM124.019 17.9195C126.027 17.9195 127.164 16.4567 127.164 14.6778C127.164 12.8856 126.027 11.436 124.019 11.436H115.543V17.9195H124.019Z" fill="black"/>
<path d="M6.41085 3H7.53803L6.04353 8.51295H4.98477L4.34376 5.28896L4.15649 4.22302L3.96923 5.28896L3.32822 8.51295H2.29827L0.792969 3H1.97056L2.6728 6.15667L2.82405 7.0356L2.9789 6.17537L3.5767 3H4.74709L5.3773 6.15667L5.53936 7.0356L5.70141 6.19033L6.41085 3Z" fill="black"/>
<path d="M11.4009 6.10431H8.82239V7.52182H11.761V8.51295H7.73843V3H11.6313V3.97617H8.82239V5.14684H11.4009V6.10431Z" fill="black"/>
<path d="M13.216 3.80787C13.216 4.18438 13.1272 4.48109 12.9496 4.69802C12.7743 4.91495 12.527 5.05583 12.2077 5.12065V4.72794C12.443 4.65064 12.605 4.51974 12.6939 4.33523C12.7419 4.22552 12.7623 4.11456 12.7551 4.00236H12.1897V3.0187H13.216V3.80787Z" fill="black"/>
<path d="M15.9925 6.35116H14.8473V8.51295H13.7633V3H16.367C16.7391 3.00748 17.0248 3.05486 17.2241 3.14213C17.4258 3.22939 17.5962 3.35781 17.7355 3.52736C17.8507 3.66699 17.9419 3.82158 18.0092 3.99113C18.0764 4.16069 18.11 4.35393 18.11 4.57086C18.11 4.83266 18.0464 5.09073 17.9191 5.34506C17.7919 5.5969 17.5818 5.77518 17.2889 5.8799C17.5338 5.98213 17.7067 6.128 17.8075 6.3175C17.9107 6.5045 17.9624 6.79125 17.9624 7.17773V7.548C17.9624 7.79984 17.972 7.97063 17.9912 8.0604C18.02 8.20252 18.0872 8.30725 18.1928 8.37457V8.51295H16.972C16.9384 8.39078 16.9144 8.29229 16.9 8.21748C16.8712 8.06289 16.8556 7.90456 16.8532 7.74249L16.846 7.23009C16.8412 6.87852 16.7788 6.64414 16.6587 6.52694C16.5411 6.40975 16.319 6.35116 15.9925 6.35116ZM16.6659 5.3488C16.8868 5.24408 16.9972 5.03713 16.9972 4.72794C16.9972 4.39382 16.8904 4.16941 16.6767 4.05472C16.5567 3.98989 16.3766 3.95747 16.1365 3.95747H14.8473V5.43857H16.1041C16.3538 5.43857 16.5411 5.40864 16.6659 5.3488Z" fill="black"/>
<path d="M22.3994 6.10431H19.8209V7.52182H22.7595V8.51295H18.737V3H22.6299V3.97617H19.8209V5.14684H22.3994V6.10431Z" fill="black"/>
</svg>
