<svg width="54" height="35" viewBox="0 0 54 35" fill="none" xmlns="http://www.w3.org/2000/svg">
<path d="M6.23973 16.3466C5.64766 16.8944 4.89053 17.1683 3.96834 17.1683C2.82726 17.1683 1.93018 16.7982 1.27711 16.0582C0.624044 15.3144 0.297509 14.295 0.297509 12.9999C0.297509 11.5995 0.668898 10.5202 1.41168 9.76199C2.05757 9.10172 2.87929 8.77158 3.87684 8.77158C5.21168 8.77158 6.1877 9.21418 6.80489 10.0994C7.14578 10.5964 7.32878 11.0952 7.3539 11.5959H5.6961C5.58845 11.2113 5.4503 10.9211 5.28165 10.7252C4.98024 10.3769 4.53349 10.2028 3.94143 10.2028C3.33859 10.2028 2.86314 10.4495 2.51508 10.9429C2.16701 11.4326 1.99298 12.1274 1.99298 13.0271C1.99298 13.9268 2.17598 14.6016 2.54199 15.0514C2.91158 15.4977 3.37986 15.7208 3.94681 15.7208C4.52811 15.7208 4.97127 15.5285 5.27627 15.1439C5.44492 14.9371 5.58487 14.627 5.6961 14.2134H7.33775C7.19422 15.0877 6.82821 15.7988 6.23973 16.3466Z" fill="white"/>
<path d="M11.6467 13.7998H9.9351V16.9452H8.31499V8.92395H12.2065C12.7627 8.93483 13.1897 9.00376 13.4875 9.13074C13.7889 9.25772 14.0437 9.44455 14.2518 9.69125C14.4241 9.89441 14.5604 10.1193 14.6609 10.366C14.7614 10.6127 14.8116 10.8939 14.8116 11.2095C14.8116 11.5904 14.7165 11.9659 14.5263 12.336C14.3362 12.7024 14.0222 12.9618 13.5844 13.1141C13.9504 13.2629 14.2088 13.4751 14.3595 13.7508C14.5138 14.0229 14.5909 14.4401 14.5909 15.0025V15.5412C14.5909 15.9076 14.6053 16.1561 14.634 16.2867C14.677 16.4935 14.7775 16.6459 14.9354 16.7438V16.9452H13.1107C13.0605 16.7674 13.0246 16.6241 13.0031 16.5153C12.96 16.2903 12.9367 16.06 12.9331 15.8242L12.9224 15.0786C12.9152 14.5671 12.8219 14.2261 12.6425 14.0556C12.4666 13.8851 12.1347 13.7998 11.6467 13.7998ZM12.6532 12.3414C12.9834 12.189 13.1484 11.8879 13.1484 11.4381C13.1484 10.9519 12.9887 10.6254 12.6694 10.4585C12.49 10.3642 12.2208 10.3171 11.862 10.3171H9.9351V12.472H11.8136C12.1868 12.472 12.4666 12.4285 12.6532 12.3414Z" fill="white"/>
<path d="M21.435 13.4407H17.5812V15.5031H21.9733V16.9452H15.9611V8.92395H21.7795V10.3443H17.5812V12.0475H21.435V13.4407Z" fill="white"/>
<path d="M27.5794 15.2963H24.6567L24.1077 16.9452H22.3746L25.2057 8.92395H27.0788L29.8885 16.9452H28.0907L27.5794 15.2963ZM27.1165 13.9141L26.1261 10.7578L25.1035 13.9141H27.1165Z" fill="white"/>
<path d="M35.5161 8.92395V10.3443H33.1425V16.9452H31.4739V10.3443H29.0895V8.92395H35.5161Z" fill="white"/>
<path d="M36.0305 8.92395H37.6775V16.9452H36.0305V8.92395Z" fill="white"/>
<path d="M45.3128 16.9452H43.6551L40.4148 11.2476V16.9452H38.8701V8.92395H40.6086L43.7681 14.5236V8.92395H45.3128V16.9452Z" fill="white"/>
<path d="M51.398 16.7493C50.9603 17.0214 50.422 17.1574 49.7833 17.1574C48.7319 17.1574 47.8707 16.7892 47.1997 16.0527C46.5 15.3126 46.1501 14.3005 46.1501 13.0162C46.1501 11.7174 46.5036 10.6762 47.2105 9.89259C47.9174 9.10897 48.8521 8.71716 50.0147 8.71716C51.023 8.71716 51.8322 8.97655 52.4422 9.49534C53.0558 10.0105 53.4075 10.6544 53.4972 11.4272H51.8663C51.7407 10.8794 51.4339 10.4966 50.9459 10.279C50.6732 10.1592 50.37 10.0994 50.0363 10.0994C49.3976 10.0994 48.8719 10.3443 48.4592 10.834C48.0501 11.3202 47.8456 12.053 47.8456 13.0325C47.8456 14.0193 48.0681 14.7177 48.513 15.1276C48.958 15.5376 49.4639 15.7425 50.0309 15.7425C50.5871 15.7425 51.0428 15.5811 51.398 15.2582C51.7533 14.9317 51.9722 14.5054 52.0547 13.9794H50.2193V12.6407H53.5241V16.9452H52.4261L52.2592 15.9439C51.9399 16.3248 51.6528 16.5933 51.398 16.7493Z" fill="white"/>
<path d="M38.2341 19.2601H34.2565V21.1048H37.739V22.4979H34.2565V25.861H32.6095V17.8506H38.2341V19.2601Z" fill="white"/>
<path d="M42.4167 26.0841C41.2828 26.0841 40.4163 25.7721 39.817 25.1481C39.0132 24.3826 38.6113 23.2797 38.6113 21.8395C38.6113 20.3702 39.0132 19.2673 39.817 18.5309C40.4163 17.9069 41.2828 17.5949 42.4167 17.5949C43.5506 17.5949 44.4172 17.9069 45.0164 18.5309C45.8166 19.2673 46.2167 20.3702 46.2167 21.8395C46.2167 23.2797 45.8166 24.3826 45.0164 25.1481C44.4172 25.7721 43.5506 26.0841 42.4167 26.0841ZM43.983 23.9291C44.367 23.4394 44.5589 22.7428 44.5589 21.8395C44.5589 20.9398 44.3652 20.245 43.9776 19.7553C43.5937 19.2619 43.0734 19.0152 42.4167 19.0152C41.7601 19.0152 41.2362 19.2601 40.8451 19.7498C40.4539 20.2396 40.2584 20.9361 40.2584 21.8395C40.2584 22.7428 40.4539 23.4394 40.8451 23.9291C41.2362 24.4189 41.7601 24.6638 42.4167 24.6638C43.0734 24.6638 43.5955 24.4189 43.983 23.9291Z" fill="white"/>
<path d="M50.4155 22.7156H48.7039V25.861H47.0837V17.8398H50.9752C51.5314 17.8506 51.9584 17.9196 52.2563 18.0465C52.5577 18.1735 52.8125 18.3604 53.0206 18.607C53.1928 18.8102 53.3292 19.0351 53.4296 19.2818C53.5301 19.5285 53.5804 19.8097 53.5804 20.1253C53.5804 20.5062 53.4853 20.8817 53.2951 21.2518C53.1049 21.6182 52.7909 21.8776 52.3532 22.0299C52.7192 22.1787 52.9775 22.3909 53.1282 22.6666C53.2825 22.9387 53.3597 23.3559 53.3597 23.9183V24.457C53.3597 24.8234 53.374 25.0719 53.4027 25.2025C53.4458 25.4093 53.5463 25.5617 53.7041 25.6596V25.861H51.8795C51.8293 25.6832 51.7934 25.5399 51.7718 25.4311C51.7288 25.2061 51.7055 24.9758 51.7019 24.74L51.6911 23.9944C51.6839 23.4829 51.5906 23.1419 51.4112 22.9714C51.2354 22.8009 50.9035 22.7156 50.4155 22.7156ZM51.422 21.2572C51.7521 21.1048 51.9172 20.8037 51.9172 20.3539C51.9172 19.8677 51.7575 19.5412 51.4381 19.3743C51.2587 19.28 50.9896 19.2329 50.6308 19.2329H48.7039V21.3878H50.5823C50.9555 21.3878 51.2354 21.3443 51.422 21.2572Z" fill="white"/>
<path d="M6.16438 31.2724H2.31054V33.3348H6.70262V34.7769H0.690428V26.7557H6.50885V28.176H2.31054V29.8793H6.16438V31.2724Z" fill="white"/>
<path d="M8.85086 34.7769H7.3061V26.7557H9.71744L11.1599 33.0627L12.5917 26.7557H14.9761V34.7769H13.4313V29.3514C13.4313 29.1954 13.4331 28.9777 13.4367 28.6984C13.4403 28.4154 13.4421 28.1977 13.4421 28.0454L11.9404 34.7769H10.331L8.8401 28.0454C8.8401 28.1977 8.84189 28.4154 8.84548 28.6984C8.84907 28.9777 8.85086 29.1954 8.85086 29.3514V34.7769Z" fill="white"/>
<path d="M19.3634 35C18.2295 35 17.363 34.688 16.7637 34.064C15.9599 33.2985 15.558 32.1957 15.558 30.7554C15.558 29.2861 15.9599 28.1832 16.7637 27.4468C17.363 26.8228 18.2295 26.5108 19.3634 26.5108C20.4973 26.5108 21.3639 26.8228 21.9631 27.4468C22.7633 28.1832 23.1634 29.2861 23.1634 30.7554C23.1634 32.1957 22.7633 33.2985 21.9631 34.064C21.3639 34.688 20.4973 35 19.3634 35ZM20.9297 32.845C21.3137 32.3553 21.5056 31.6587 21.5056 30.7554C21.5056 29.8557 21.3119 29.1609 20.9243 28.6712C20.5404 28.1778 20.0201 27.9311 19.3634 27.9311C18.7068 27.9311 18.1829 28.176 17.7918 28.6657C17.4006 29.1555 17.2051 29.852 17.2051 30.7554C17.2051 31.6587 17.4006 32.3553 17.7918 32.845C18.1829 33.3348 18.7068 33.5797 19.3634 33.5797C20.0201 33.5797 20.5422 33.3348 20.9297 32.845Z" fill="white"/>
<path d="M29.5369 26.7557V28.176H27.1632V34.7769H25.4947V28.176H23.1103V26.7557H29.5369Z" fill="white"/>
<path d="M29.7205 26.7557H31.3676V34.7769H29.7205V26.7557Z" fill="white"/>
<path d="M35.7657 35C34.6318 35 33.7652 34.688 33.166 34.064C32.3622 33.2985 31.9603 32.1957 31.9603 30.7554C31.9603 29.2861 32.3622 28.1832 33.166 27.4468C33.7652 26.8228 34.6318 26.5108 35.7657 26.5108C36.8996 26.5108 37.7662 26.8228 38.3654 27.4468C39.1656 28.1832 39.5657 29.2861 39.5657 30.7554C39.5657 32.1957 39.1656 33.2985 38.3654 34.064C37.7662 34.688 36.8996 35 35.7657 35ZM37.332 32.845C37.7159 32.3553 37.9079 31.6587 37.9079 30.7554C37.9079 29.8557 37.7141 29.1609 37.3266 28.6712C36.9426 28.1778 36.4223 27.9311 35.7657 27.9311C35.109 27.9311 34.5851 28.176 34.194 28.6657C33.8029 29.1555 33.6073 29.852 33.6073 30.7554C33.6073 31.6587 33.8029 32.3553 34.194 32.845C34.5851 33.3348 35.109 33.5797 35.7657 33.5797C36.4223 33.5797 36.9444 33.3348 37.332 32.845Z" fill="white"/>
<path d="M46.5904 34.7769H44.9326L41.6924 29.0793V34.7769H40.1476V26.7557H41.8862L45.0457 32.3553V26.7557H46.5904V34.7769Z" fill="white"/>
<path d="M50.3588 33.6178C50.7499 33.6178 51.0675 33.5743 51.3115 33.4872C51.7744 33.3203 52.0058 33.0101 52.0058 32.5566C52.0058 32.2918 51.891 32.0868 51.6613 31.9417C51.4317 31.8002 51.0711 31.6751 50.5795 31.5662L49.7398 31.3758C48.9145 31.1871 48.344 30.9821 48.0282 30.7608C47.4935 30.3908 47.2262 29.8121 47.2262 29.0249C47.2262 28.3066 47.4846 27.7098 48.0013 27.2345C48.518 26.7593 49.2769 26.5217 50.278 26.5217C51.1141 26.5217 51.8264 26.7466 52.4149 27.1964C53.0069 27.6427 53.3173 28.2921 53.346 29.1446H51.7528C51.7241 28.6621 51.516 28.3193 51.1285 28.1161C50.8701 27.9819 50.549 27.9148 50.165 27.9148C49.738 27.9148 49.3971 28.0018 49.1424 28.176C48.8876 28.3501 48.7602 28.5932 48.7602 28.9052C48.7602 29.1918 48.8858 29.4058 49.137 29.5473C49.2984 29.6416 49.6429 29.7523 50.1704 29.8793L51.5375 30.2112C52.1368 30.3563 52.5889 30.5504 52.8939 30.7935C53.3676 31.1708 53.6044 31.7168 53.6044 32.4315C53.6044 33.1643 53.3263 33.7738 52.7701 34.2599C52.2175 34.7424 51.4353 34.9837 50.4234 34.9837C49.3899 34.9837 48.5772 34.7461 47.9851 34.2708C47.3931 33.7919 47.097 33.1353 47.097 32.3009H48.6795C48.7297 32.6673 48.8284 32.9412 48.9755 33.1226C49.2446 33.4527 49.7057 33.6178 50.3588 33.6178Z" fill="white"/>
<path d="M46.1 0H54V7.98712H46.1V0Z" fill="white"/>
<path d="M8.1103 0H9.73756L7.58001 8.03972H6.05153L5.12612 3.33807L4.85578 1.78358L4.58544 3.33807L3.66003 8.03972H2.17314L0 0H1.70004L2.71383 4.60348L2.93218 5.88525L3.15574 4.63075L4.01876 0H5.7084L6.61821 4.60348L6.85216 5.88525L7.08611 4.65257L8.1103 0Z" fill="white"/>
<path d="M15.3142 4.52712H11.5917V6.59432H15.8341V8.03972H10.0269V0H15.6469V1.42359H11.5917V3.1308H15.3142V4.52712Z" fill="white"/>
<path d="M17.9347 1.17814C17.9347 1.72721 17.8064 2.15993 17.55 2.47628C17.2969 2.79263 16.94 2.99808 16.479 3.09262V2.51991C16.8186 2.40719 17.0526 2.21629 17.1808 1.94721C17.2502 1.78721 17.2796 1.6254 17.2692 1.46177H16.453V0.0272718H17.9347V1.17814Z" fill="white"/>
<path d="M21.9429 4.88711H20.2897V8.03972H18.7248V0H22.4836C23.0208 0.0109087 23.4333 0.0799973 23.7209 0.207266C24.0121 0.334534 24.2582 0.5218 24.4592 0.769065C24.6256 0.972694 24.7573 1.19814 24.8543 1.4454C24.9513 1.69267 24.9999 1.97448 24.9999 2.29083C24.9999 2.67264 24.908 3.04899 24.7243 3.41988C24.5406 3.78714 24.2374 4.04713 23.8145 4.19986C24.168 4.34894 24.4176 4.56166 24.5632 4.83802C24.7122 5.11073 24.7867 5.5289 24.7867 6.09252V6.6325C24.7867 6.99976 24.8006 7.24884 24.8283 7.37975C24.8699 7.58701 24.9669 7.73973 25.1194 7.83791V8.03972H23.357C23.3085 7.86155 23.2738 7.71792 23.253 7.60883C23.2114 7.38338 23.1889 7.15248 23.1855 6.91613L23.1751 6.16888C23.1681 5.65617 23.078 5.31436 22.9047 5.14346C22.7349 4.97256 22.4143 4.88711 21.9429 4.88711ZM22.9151 3.42534C23.234 3.27262 23.3934 2.97081 23.3934 2.51991C23.3934 2.03266 23.2392 1.7054 22.9307 1.53813C22.7574 1.44359 22.4975 1.39632 22.1509 1.39632H20.2897V3.55624H22.1041C22.4645 3.55624 22.7349 3.51261 22.9151 3.42534Z" fill="white"/>
<path d="M31.1923 4.52712H27.4699V6.59432H31.7122V8.03972H25.905V0H31.525V1.42359H27.4699V3.1308H31.1923V4.52712Z" fill="white"/>
</svg>
